<svg xmlns="http://www.w3.org/2000/svg" viewBox="0 0 1000 700" role="img" aria-label="Two points A and B plotted on a labelled Cartesian grid with equal x and y scales. A straight line is drawn through them.">
<title>A line through two points</title>
<desc>Point A is at (2, 6) and point B is at (-1, 8), plotted on a labelled Cartesian grid with equal x and y scales. A straight line is drawn through them.</desc>
<style>.cx-axis{stroke:#111;stroke-width:3;fill:none}.cx-tick{stroke:#111;stroke-width:2}.cx-grid-major{stroke:#888;stroke-width:1.25;fill:none}.cx-grid-minor{stroke:#bbb;stroke-width:0.75;fill:none}.cx-line{stroke:#111;stroke-width:3;fill:none}.cx-pt-outline{fill:#fff;stroke:#111;stroke-width:4}.cx-pt-core{fill:#111}.cx-guide{stroke:#555;stroke-width:1.5;stroke-dasharray:5 4;stroke-linecap:round;fill:none}text{font-family:sans-serif;font-size:28px;fill:#111}.cx-ticklbl{font-size:20px;fill:#333}.cx-lbl{font-size:28px;fill:#111}</style>
<line class="cx-grid-minor" x1="376" y1="40" x2="376" y2="660"/>
<line class="cx-grid-minor" x1="438" y1="40" x2="438" y2="660"/>
<line class="cx-grid-minor" x1="500" y1="40" x2="500" y2="660"/>
<line class="cx-grid-minor" x1="562" y1="40" x2="562" y2="660"/>
<line class="cx-grid-minor" x1="624" y1="40" x2="624" y2="660"/>
<line class="cx-grid-minor" x1="345" y1="629" x2="655" y2="629"/>
<line class="cx-grid-minor" x1="345" y1="567" x2="655" y2="567"/>
<line class="cx-grid-minor" x1="345" y1="505" x2="655" y2="505"/>
<line class="cx-grid-minor" x1="345" y1="443" x2="655" y2="443"/>
<line class="cx-grid-minor" x1="345" y1="381" x2="655" y2="381"/>
<line class="cx-grid-minor" x1="345" y1="319" x2="655" y2="319"/>
<line class="cx-grid-minor" x1="345" y1="257" x2="655" y2="257"/>
<line class="cx-grid-minor" x1="345" y1="195" x2="655" y2="195"/>
<line class="cx-grid-minor" x1="345" y1="133" x2="655" y2="133"/>
<line class="cx-grid-minor" x1="345" y1="71" x2="655" y2="71"/>
<line class="cx-grid-major" x1="345" y1="40" x2="345" y2="660"/>
<line class="cx-grid-major" x1="407" y1="40" x2="407" y2="660"/>
<line class="cx-grid-major" x1="531" y1="40" x2="531" y2="660"/>
<line class="cx-grid-major" x1="593" y1="40" x2="593" y2="660"/>
<line class="cx-grid-major" x1="655" y1="40" x2="655" y2="660"/>
<line class="cx-grid-major" x1="345" y1="660" x2="655" y2="660"/>
<line class="cx-grid-major" x1="345" y1="536" x2="655" y2="536"/>
<line class="cx-grid-major" x1="345" y1="474" x2="655" y2="474"/>
<line class="cx-grid-major" x1="345" y1="412" x2="655" y2="412"/>
<line class="cx-grid-major" x1="345" y1="350" x2="655" y2="350"/>
<line class="cx-grid-major" x1="345" y1="288" x2="655" y2="288"/>
<line class="cx-grid-major" x1="345" y1="226" x2="655" y2="226"/>
<line class="cx-grid-major" x1="345" y1="164" x2="655" y2="164"/>
<line class="cx-grid-major" x1="345" y1="102" x2="655" y2="102"/>
<line class="cx-grid-major" x1="345" y1="40" x2="655" y2="40"/>
<line class="cx-axis" x1="345" y1="598" x2="655" y2="598"/>
<line class="cx-axis" x1="469" y1="660" x2="469" y2="40"/>
<path class="cx-axis" d="M 643 591 L 655 598 L 643 605"/>
<path class="cx-axis" d="M 462 52 L 469 40 L 476 52"/>
<text class="cx-lbl" x="651" y="628" text-anchor="end">x</text>
<text class="cx-lbl" x="481" y="46" text-anchor="start">y</text>
<line class="cx-tick" x1="345" y1="592" x2="345" y2="604"/>
<text class="cx-ticklbl" x="345" y="624" text-anchor="middle">-2</text>
<line class="cx-tick" x1="407" y1="592" x2="407" y2="604"/>
<text class="cx-ticklbl" x="407" y="624" text-anchor="middle">-1</text>
<line class="cx-tick" x1="531" y1="592" x2="531" y2="604"/>
<text class="cx-ticklbl" x="531" y="624" text-anchor="middle">1</text>
<line class="cx-tick" x1="593" y1="592" x2="593" y2="604"/>
<text class="cx-ticklbl" x="593" y="624" text-anchor="middle">2</text>
<line class="cx-tick" x1="655" y1="592" x2="655" y2="604"/>
<text class="cx-ticklbl" x="655" y="624" text-anchor="middle">3</text>
<line class="cx-tick" x1="463" y1="660" x2="475" y2="660"/>
<text class="cx-ticklbl" x="457" y="667" text-anchor="end">-1</text>
<line class="cx-tick" x1="463" y1="536" x2="475" y2="536"/>
<text class="cx-ticklbl" x="457" y="543" text-anchor="end">1</text>
<line class="cx-tick" x1="463" y1="474" x2="475" y2="474"/>
<text class="cx-ticklbl" x="457" y="481" text-anchor="end">2</text>
<line class="cx-tick" x1="463" y1="412" x2="475" y2="412"/>
<text class="cx-ticklbl" x="457" y="419" text-anchor="end">3</text>
<line class="cx-tick" x1="463" y1="350" x2="475" y2="350"/>
<text class="cx-ticklbl" x="457" y="357" text-anchor="end">4</text>
<line class="cx-tick" x1="463" y1="288" x2="475" y2="288"/>
<text class="cx-ticklbl" x="457" y="295" text-anchor="end">5</text>
<line class="cx-tick" x1="463" y1="226" x2="475" y2="226"/>
<text class="cx-ticklbl" x="457" y="233" text-anchor="end">6</text>
<line class="cx-tick" x1="463" y1="164" x2="475" y2="164"/>
<text class="cx-ticklbl" x="457" y="171" text-anchor="end">7</text>
<line class="cx-tick" x1="463" y1="102" x2="475" y2="102"/>
<text class="cx-ticklbl" x="457" y="109" text-anchor="end">8</text>
<line class="cx-tick" x1="463" y1="40" x2="475" y2="40"/>
<text class="cx-ticklbl" x="457" y="47" text-anchor="end">9</text>
<text class="cx-ticklbl" x="457" y="624" text-anchor="end">0</text>
<line class="cx-line" x1="345" y1="61" x2="655" y2="267"/>
<circle class="cx-pt-outline" cx="593" cy="226" r="9"/>
<circle class="cx-pt-core" cx="593" cy="226" r="5"/>
<text class="cx-lbl" x="579" y="214" text-anchor="end">A</text>
<circle class="cx-pt-outline" cx="407" cy="102" r="9"/>
<circle class="cx-pt-core" cx="407" cy="102" r="5"/>
<text class="cx-lbl" x="421" y="90" text-anchor="start">B</text>
</svg>