<svg xmlns="http://www.w3.org/2000/svg" viewBox="0 0 1000 700" role="img" aria-label="Two points A and B plotted on a labelled Cartesian grid with equal x and y scales.">
<title>Two plotted points</title>
<desc>Point A is at (4, -5) and point B is at (1, -9), plotted on a labelled Cartesian grid with equal x and y scales.</desc>
<style>.cx-axis{stroke:#111;stroke-width:3;fill:none}.cx-tick{stroke:#111;stroke-width:2}.cx-grid-major{stroke:#888;stroke-width:1.25;fill:none}.cx-grid-minor{stroke:#bbb;stroke-width:0.75;fill:none}.cx-line{stroke:#111;stroke-width:3;fill:none}.cx-pt-outline{fill:#fff;stroke:#111;stroke-width:4}.cx-pt-core{fill:#111}.cx-guide{stroke:#555;stroke-width:1.5;stroke-dasharray:5 4;stroke-linecap:round;fill:none}text{font-family:sans-serif;font-size:28px;fill:#111}.cx-ticklbl{font-size:20px;fill:#333}.cx-lbl{font-size:28px;fill:#111}</style>
<line class="cx-grid-minor" x1="360" y1="42" x2="360" y2="658"/>
<line class="cx-grid-minor" x1="416" y1="42" x2="416" y2="658"/>
<line class="cx-grid-minor" x1="472" y1="42" x2="472" y2="658"/>
<line class="cx-grid-minor" x1="528" y1="42" x2="528" y2="658"/>
<line class="cx-grid-minor" x1="584" y1="42" x2="584" y2="658"/>
<line class="cx-grid-minor" x1="640" y1="42" x2="640" y2="658"/>
<line class="cx-grid-minor" x1="332" y1="630" x2="668" y2="630"/>
<line class="cx-grid-minor" x1="332" y1="574" x2="668" y2="574"/>
<line class="cx-grid-minor" x1="332" y1="518" x2="668" y2="518"/>
<line class="cx-grid-minor" x1="332" y1="462" x2="668" y2="462"/>
<line class="cx-grid-minor" x1="332" y1="406" x2="668" y2="406"/>
<line class="cx-grid-minor" x1="332" y1="350" x2="668" y2="350"/>
<line class="cx-grid-minor" x1="332" y1="294" x2="668" y2="294"/>
<line class="cx-grid-minor" x1="332" y1="238" x2="668" y2="238"/>
<line class="cx-grid-minor" x1="332" y1="182" x2="668" y2="182"/>
<line class="cx-grid-minor" x1="332" y1="126" x2="668" y2="126"/>
<line class="cx-grid-minor" x1="332" y1="70" x2="668" y2="70"/>
<line class="cx-grid-major" x1="332" y1="42" x2="332" y2="658"/>
<line class="cx-grid-major" x1="444" y1="42" x2="444" y2="658"/>
<line class="cx-grid-major" x1="500" y1="42" x2="500" y2="658"/>
<line class="cx-grid-major" x1="556" y1="42" x2="556" y2="658"/>
<line class="cx-grid-major" x1="612" y1="42" x2="612" y2="658"/>
<line class="cx-grid-major" x1="668" y1="42" x2="668" y2="658"/>
<line class="cx-grid-major" x1="332" y1="658" x2="668" y2="658"/>
<line class="cx-grid-major" x1="332" y1="602" x2="668" y2="602"/>
<line class="cx-grid-major" x1="332" y1="546" x2="668" y2="546"/>
<line class="cx-grid-major" x1="332" y1="490" x2="668" y2="490"/>
<line class="cx-grid-major" x1="332" y1="434" x2="668" y2="434"/>
<line class="cx-grid-major" x1="332" y1="378" x2="668" y2="378"/>
<line class="cx-grid-major" x1="332" y1="322" x2="668" y2="322"/>
<line class="cx-grid-major" x1="332" y1="266" x2="668" y2="266"/>
<line class="cx-grid-major" x1="332" y1="210" x2="668" y2="210"/>
<line class="cx-grid-major" x1="332" y1="154" x2="668" y2="154"/>
<line class="cx-grid-major" x1="332" y1="42" x2="668" y2="42"/>
<line class="cx-axis" x1="332" y1="98" x2="668" y2="98"/>
<line class="cx-axis" x1="388" y1="658" x2="388" y2="42"/>
<path class="cx-axis" d="M 656 91 L 668 98 L 656 105"/>
<path class="cx-axis" d="M 381 54 L 388 42 L 395 54"/>
<text class="cx-lbl" x="664" y="128" text-anchor="end">x</text>
<text class="cx-lbl" x="400" y="48" text-anchor="start">y</text>
<line class="cx-tick" x1="332" y1="92" x2="332" y2="104"/>
<text class="cx-ticklbl" x="332" y="124" text-anchor="middle">-1</text>
<line class="cx-tick" x1="444" y1="92" x2="444" y2="104"/>
<text class="cx-ticklbl" x="444" y="124" text-anchor="middle">1</text>
<line class="cx-tick" x1="500" y1="92" x2="500" y2="104"/>
<text class="cx-ticklbl" x="500" y="124" text-anchor="middle">2</text>
<line class="cx-tick" x1="556" y1="92" x2="556" y2="104"/>
<text class="cx-ticklbl" x="556" y="124" text-anchor="middle">3</text>
<line class="cx-tick" x1="612" y1="92" x2="612" y2="104"/>
<text class="cx-ticklbl" x="612" y="124" text-anchor="middle">4</text>
<line class="cx-tick" x1="668" y1="92" x2="668" y2="104"/>
<text class="cx-ticklbl" x="668" y="124" text-anchor="middle">5</text>
<line class="cx-tick" x1="382" y1="658" x2="394" y2="658"/>
<text class="cx-ticklbl" x="376" y="665" text-anchor="end">-10</text>
<line class="cx-tick" x1="382" y1="546" x2="394" y2="546"/>
<text class="cx-ticklbl" x="376" y="553" text-anchor="end">-8</text>
<line class="cx-tick" x1="382" y1="434" x2="394" y2="434"/>
<text class="cx-ticklbl" x="376" y="441" text-anchor="end">-6</text>
<line class="cx-tick" x1="382" y1="322" x2="394" y2="322"/>
<text class="cx-ticklbl" x="376" y="329" text-anchor="end">-4</text>
<line class="cx-tick" x1="382" y1="210" x2="394" y2="210"/>
<text class="cx-ticklbl" x="376" y="217" text-anchor="end">-2</text>
<text class="cx-ticklbl" x="376" y="124" text-anchor="end">0</text>
<line class="cx-guide" x1="612" y1="378" x2="444" y2="378"/>
<line class="cx-guide" x1="444" y1="378" x2="444" y2="602"/>
<circle class="cx-pt-outline" cx="612" cy="378" r="9"/>
<circle class="cx-pt-core" cx="612" cy="378" r="5"/>
<text class="cx-lbl" x="598" y="366" text-anchor="end">A</text>
<circle class="cx-pt-outline" cx="444" cy="602" r="9"/>
<circle class="cx-pt-core" cx="444" cy="602" r="5"/>
<text class="cx-lbl" x="458" y="590" text-anchor="start">B</text>
</svg>